<svg width="26" height="35" viewBox="0 0 26 35" fill="none" xmlns="http://www.w3.org/2000/svg">
<path d="M8.12499 4.92188C8.12499 2.20356 10.3076 0 13 0C15.6924 0 17.875 2.20356 17.875 4.92188C17.875 7.64012 15.6924 9.84375 13 9.84375C10.3076 9.84375 8.12499 7.64012 8.12499 4.92188ZM25.3654 5.01573C24.5193 4.16145 23.1474 4.16145 22.3013 5.01573L16.4359 10.9375H9.56407L3.69869 5.01573C2.85261 4.16145 1.4807 4.16145 0.634614 5.01573C-0.211538 5.87002 -0.211538 7.25505 0.634614 8.10934L7.04166 14.5779V32.8125C7.04166 34.0206 8.01172 35 9.20833 35H10.2917C11.4883 35 12.4583 34.0206 12.4583 32.8125V25.1562H13.5417V32.8125C13.5417 34.0206 14.5117 35 15.7083 35H16.7917C17.9883 35 18.9583 34.0206 18.9583 32.8125V14.5779L25.3654 8.10927C26.2115 7.25498 26.2115 5.87002 25.3654 5.01573Z" fill="#071538"/>
</svg>
