<svg width="62" height="62" viewBox="0 0 62 62" fill="none" xmlns="http://www.w3.org/2000/svg">
<path d="M31 0C13.875 0 0 13.875 0 31C0 48.125 13.875 62 31 62C48.125 62 62 48.125 62 31C62 13.875 48.125 0 31 0ZM31 12C37.075 12 42 16.925 42 23C42 29.075 37.075 34 31 34C24.925 34 20 29.075 20 23C20 16.925 24.925 12 31 12ZM31 55C23.6625 55 17.0875 51.675 12.6875 46.475C15.0375 42.05 19.6375 39 25 39C25.3 39 25.6 39.05 25.8875 39.1375C27.5125 39.6625 29.2125 40 31 40C32.7875 40 34.5 39.6625 36.1125 39.1375C36.4 39.05 36.7 39 37 39C42.3625 39 46.9625 42.05 49.3125 46.475C44.9125 51.675 38.3375 55 31 55Z" fill="#071538"/>
</svg>
