<svg width="29" height="29" viewBox="0 0 29 29" fill="none" xmlns="http://www.w3.org/2000/svg">
    <path d="M19.6784 8.8871C18.8304 3.66593 16.8304 0 14.5029 0C12.1754 0 10.1754 3.66593 9.32749 8.8871H19.6784ZM8.88889 14.5C8.88889 15.798 8.95906 17.0433 9.08187 18.2419H19.9181C20.0409 17.0433 20.1111 15.798 20.1111 14.5C20.1111 13.202 20.0409 11.9567 19.9181 10.7581H9.08187C8.95906 11.9567 8.88889 13.202 8.88889 14.5ZM27.8772 8.8871C26.2047 4.91714 22.8187 1.84758 18.6374 0.608064C20.0643 2.58427 21.0468 5.56028 21.5614 8.8871H27.8772ZM10.3626 0.608064C6.18713 1.84758 2.79532 4.91714 1.12865 8.8871H7.44444C7.95322 5.56028 8.93567 2.58427 10.3626 0.608064ZM28.5029 10.7581H21.7953C21.9181 11.9859 21.9883 13.2429 21.9883 14.5C21.9883 15.7571 21.9181 17.0141 21.7953 18.2419H28.4971C28.8187 17.0433 29 15.798 29 14.5C29 13.202 28.8187 11.9567 28.5029 10.7581ZM7.01754 14.5C7.01754 13.2429 7.08772 11.9859 7.21053 10.7581H0.502924C0.187135 11.9567 0 13.202 0 14.5C0 15.798 0.187135 17.0433 0.502924 18.2419H7.20468C7.08772 17.0141 7.01754 15.7571 7.01754 14.5ZM9.32749 20.1129C10.1754 25.3341 12.1754 29 14.5029 29C16.8304 29 18.8304 25.3341 19.6784 20.1129H9.32749ZM18.6433 28.3919C22.8187 27.1524 26.2105 24.0829 27.883 20.1129H21.5673C21.0526 23.4397 20.0702 26.4157 18.6433 28.3919ZM1.12865 20.1129C2.80117 24.0829 6.18713 27.1524 10.3684 28.3919C8.94152 26.4157 7.95906 23.4397 7.44444 20.1129H1.12865Z" fill="#66E0C9"/>
</svg>
