<?xml version="1.0" encoding="UTF-8"?><svg xmlns="http://www.w3.org/2000/svg" viewBox="0 0 372.47 372.47"><defs><style>.d{fill:#66e0c9;}</style></defs><g id="a"/><g id="b"><g id="c"><g><path class="d" d="M242.25,188.38c-2.41,3.97-3.11,8.18-2.7,12.61,.19,2.11,.52,4.2,.74,6.3,.18,1.73,.1,3.44-.61,5.06-.46,1.04-1.07,2.24-2.2,2.34-1.29,.11-2.38-.77-3.13-1.91-.76-1.16-1.11-2.46-1.39-3.79-.53-2.45-.75-4.97-1.64-7.34-1.04-2.77-3.03-4.34-5.93-4.75-.9-.13-1.84-.12-2.75-.09-4.05,.15-7.82,1.49-11.6,2.76-5.68,1.9-11.34,3.88-17.37,4.35-3.07,.24-6.1,.05-8.67-1.94-.6-.46-1.59-1.01-1.34-1.78,.26-.79,1.27-1.12,2.19-1.21,3.58-.35,7.11-1.04,10.64-1.7,9.23-1.74,17.76-5.18,25.21-11,3.31-2.59,6-5.73,7.86-9.53,.33-.67,.34-1.07-.38-1.54-10.17-6.73-21.34-9.14-33.28-6.98-14.98,2.71-26.11,11.1-33.16,24.51-6.5,12.36-7.45,25.15-1.51,38.12,.7,1.52,1.33,3.08,1.8,4.68,.24,.83,.61,1.5,1.11,2.32,1.47-2.32,2.39-4.7,2.89-7.26,.73-3.73,.11-7.39-.38-11.07-.25-1.86-.4-3.75,.23-5.58,.46-1.33,1.12-2.92,2.56-3.04,1.58-.13,2.67,1.22,3.37,2.67,.57,1.2,.88,2.47,1.16,3.76,.53,2.41,.87,4.87,1.92,7.14,1.13,2.43,2.99,3.86,5.66,4.27,2.89,.44,5.66-.12,8.38-.92,5.28-1.56,10.44-3.5,15.81-4.73,3.98-.92,7.98-1.75,12.09-1.32,2.21,.23,4.25,.86,5.13,3.27,.33,.91,.21,1.35-.87,1.48-2.34,.27-4.67,.61-6.99,1.01-7.46,1.27-14.77,3.03-21.61,6.4-6.91,3.4-12.53,8.19-16.28,15.04-.43,.79-.35,1.24,.28,1.82,1.72,1.59,3.64,2.88,5.77,3.82,8.38,3.69,17.14,5.12,26.21,3.84,14.94-2.1,26.49-9.63,33.95-22.74,7.87-13.82,7.62-28.17,1.55-42.62-.69-1.65-1.56-3.2-2.7-4.72Z"/><path class="d" d="M82.62,167.25c-25.7-.18-46.07,20.92-46.36,45.26-.29,24.12,19.19,46.23,45.74,46.35,26.18,.12,46.08-21.08,45.87-45.87,.39-24.85-20.33-45.56-45.26-45.73Z"/><path class="d" d="M186.24,0C83.38,0,0,83.38,0,186.24s83.38,186.24,186.24,186.24,186.24-83.38,186.24-186.24S289.09,0,186.24,0Zm180.77,166.41c-7.07,5.61-14.11,11.27-21.14,16.93-.57,.46-.83,.52-1.34-.15-7.73-10.21-18-15.28-30.84-14.85-16.26,.55-30.79,13.41-33.51,29.47-.41,2.41-.54,4.84-.54,7.28,0,27.33,0,54.65,0,81.98q0,1.57-1.54,1.57c-8.8,0-17.59-.03-26.38,.04-1.27,.01-1.55-.42-1.54-1.53,.03-3.88,.01-7.75,.01-11.63v-1.24c-.9,.1-1.37,.75-1.96,1.16-5.69,4.03-11.81,7.25-18.31,9.78-4.67,1.82-9.54,2.88-14.42,3.85-1.72,.34-3.51,.32-5.26,.53-3.81,.44-7.63,.29-11.44,.19-2.5-.07-5.03-.48-7.53-.89-4.49-.74-8.88-1.79-13.13-3.38-7.29-2.72-14.06-6.39-20.28-11.1-3.63-2.75-6.92-5.85-10.02-9.15-1.77-1.87-3.46-3.83-4.86-6.01-.16-.26-.45-.43-.68-.65-1.21,.58-1.74,1.81-2.54,2.76-3.82,4.59-8.16,8.62-12.96,12.16-3.89,2.86-8.01,5.34-12.36,7.42-6.31,3.02-12.93,5.04-19.82,6.26-5.75,1.02-11.56,1.18-17.34,.9-5.86-.28-11.65-1.35-17.29-3.1-7.84-2.43-15.1-6-21.78-10.75-3.29-2.34-6.31-4.99-9.21-7.82-6.23-6.08-11.09-13.11-14.86-20.9-2.8-5.77-4.82-11.83-5.95-18.17-.77-4.33-1.23-8.67-1.24-13.08,0-3.2-.06-6.41,.31-9.58,.53-4.49,1.37-8.93,2.67-13.28,2.33-7.76,5.87-14.92,10.45-21.58,3.11-4.53,6.69-8.68,10.76-12.35,9.3-8.4,20.01-14.26,32.21-17.31,3.74-.94,7.54-1.56,11.4-1.87,2.62-.21,5.25-.43,7.87-.39,10.33,.17,20.27,2.11,29.72,6.42,5.13,2.34,9.98,5.13,14.52,8.46,.25,.18,.45,.53,.82,.36,.38-.17,.2-.56,.22-.86,.03-.32,0-.64,0-.96,0-37.36,0-74.71,0-112.07,0-1.86-.2-1.68,1.65-1.68,8.72,0,17.43,.02,26.15-.03,1.21,0,1.53,.29,1.53,1.52-.03,38.35-.03,76.71-.03,115.06,3.73-2.68,7.54-5.23,11.61-7.37,13.01-6.83,26.86-9.56,41.47-8.23,20.84,1.9,37.84,11.25,51.54,26.88,.18,.21,.36,.43,.55,.64,.05,.06,.13,.09,.24,.15,.84-1.05,1.64-2.14,2.52-3.17,10.09-11.77,22.47-19.82,37.82-22.78,18.14-3.5,34.81,.25,49.98,10.73,5.51,3.8,10.22,8.43,14.25,13.76,.53,.69,.59,1.05-.18,1.66Z"/></g></g></g></svg>