<svg width="25" height="23" viewBox="0 0 25 23"  xmlns="http://www.w3.org/2000/svg">
<path d="M16.027 9.95326H23.4293C23.8737 9.95326 24.2497 9.57728 24.2204 9.13295C23.9713 5.43177 22.0524 2.18959 19.2155 0.138804C18.8541 -0.119985 18.3414 -0.00279748 18.1071 0.373179L14.1813 6.64271C15.2848 7.34095 16.027 8.55677 16.027 9.95326ZM14.1813 13.2589C13.5807 13.6349 12.8727 13.8644 12.111 13.8644C11.3493 13.8644 10.6461 13.6349 10.0407 13.2589L6.11489 19.5333C5.88051 19.9093 5.9977 20.4171 6.38832 20.6271C8.09243 21.5451 10.0407 22.0724 12.111 22.0724C14.1813 22.0724 16.1295 21.5451 17.8336 20.6271C18.2243 20.4171 18.3414 19.9044 18.1071 19.5333L14.1813 13.2589ZM12.111 12.297C13.4049 12.297 14.4547 11.2472 14.4547 9.95326C14.4547 8.65931 13.4049 7.60951 12.111 7.60951C10.817 7.60951 9.76723 8.65931 9.76723 9.95326C9.76723 11.2472 10.817 12.297 12.111 12.297ZM0.79262 9.95326H8.19496C8.19496 8.55677 8.93715 7.34095 10.0407 6.64759L6.11489 0.378062C5.88051 0.00208544 5.36782 -0.119985 5.00649 0.143687C2.16957 2.19447 0.250628 5.43666 0.00160466 9.13783C-0.0276922 9.57728 0.348284 9.95326 0.79262 9.95326Z" fill="#DEE4EE"/>
</svg>

