<svg width="21" height="20" viewBox="0 0 21 20" fill="none" xmlns="http://www.w3.org/2000/svg">
  <path d="M1.25512 6.19466L10.0381 10.0646C10.2945 10.1778 10.5845 10.1778 10.8409 10.0646L19.6239 6.19466C20.2479 5.91962 20.2479 5.00368 19.6239 4.72864L10.8412 0.85831C10.7153 0.802383 10.5784 0.773438 10.4399 0.773438C10.3014 0.773438 10.1645 0.802383 10.0385 0.85831L1.25512 4.72828C0.631105 5.00331 0.631105 5.91962 1.25512 6.19466ZM19.6243 9.42775L17.434 8.46347L11.3393 11.1468C11.0543 11.2725 10.7515 11.3362 10.4397 11.3362C10.1279 11.3362 9.82548 11.2725 9.54005 11.1468L3.44579 8.46347L1.25512 9.42775C0.631105 9.70243 0.631105 10.618 1.25512 10.8927L10.0381 14.7597C10.2945 14.8725 10.5845 14.8725 10.8409 14.7597L19.6243 10.8927C20.2483 10.618 20.2483 9.70243 19.6243 9.42775ZM19.6243 14.1082L17.4423 13.1476L11.3393 15.8346C11.0543 15.9602 10.7515 16.0239 10.4397 16.0239C10.1279 16.0239 9.82548 15.9602 9.54005 15.8346L3.43749 13.1476L1.25512 14.1082C0.631105 14.3829 0.631105 15.2984 1.25512 15.5731L10.0381 19.4401C10.2945 19.5529 10.5845 19.5529 10.8409 19.4401L19.6243 15.5731C20.2483 15.2984 20.2483 14.3829 19.6243 14.1082Z" fill="#DEE4EE"/>
</svg>
