<svg width="15" height="16" viewBox="0 0 15 13" fill="none" xmlns="http://www.w3.org/2000/svg">
<path d="M8.62155 0.708496H5.3789C2.41419 0.708496 0.00537109 3.04783 0.00537109 5.91989C0.00537109 8.79195 1.85831 10.807 6.39802 12.8453C6.51383 12.8916 6.60647 12.9147 6.72228 12.9147C6.88442 12.9147 7.02339 12.8684 7.16236 12.7758C7.39397 12.6368 7.53294 12.382 7.53294 12.1041V11.1081H8.62155C11.5863 11.1081 14.0182 8.76879 14.0182 5.89673C14.0182 3.02467 11.5863 0.708496 8.62155 0.708496ZM8.62155 10.1122H7.27817C6.83809 10.1122 6.4675 10.4828 6.4675 10.9228V11.7798C2.55317 9.9732 1.02449 8.30556 1.02449 5.94306C1.02449 3.65004 2.97008 1.77394 5.3789 1.77394H8.62155C11.0072 1.77394 12.976 3.65004 12.976 5.94306C12.976 8.23607 11.0072 10.1122 8.62155 10.1122Z" fill="#64748B"/>
</svg>

