<svg width="15" height="16" viewBox="0 0 14 16" fill="none" xmlns="http://www.w3.org/2000/svg">
<path d="M12.9294 12.8871L12.4661 12.1691C12.3735 12.0301 12.3272 11.8911 12.3272 11.729V6.91135C12.3272 5.5448 11.7481 4.2709 10.6827 3.32127C9.82569 2.55693 8.71392 2.07054 7.53267 1.97789V1.51465C7.53267 1.23671 7.30105 0.981934 6.99995 0.981934C6.72201 0.981934 6.46723 1.21355 6.46723 1.51465V1.95473C6.42091 1.95473 6.37458 1.95473 6.32826 1.97789C3.64149 2.27899 1.62642 4.43304 1.62642 7.00399V11.729C1.60326 11.9606 1.55693 12.0764 1.51061 12.1459L1.07054 12.8871C0.931566 13.1187 0.931566 13.3966 1.07054 13.6283C1.20951 13.8367 1.44112 13.9757 1.6959 13.9757H6.49039V14.4852C6.49039 14.7632 6.72201 15.018 7.02311 15.018C7.30105 15.018 7.55583 14.7863 7.55583 14.4852V13.9757H12.3272C12.5819 13.9757 12.8136 13.8367 12.9525 13.6283C13.0915 13.3966 13.0915 13.1187 12.9294 12.8871ZM2.25179 12.9334L2.41392 12.6555C2.55289 12.4238 2.62238 12.1459 2.6687 11.8216V7.00399C2.6687 4.96576 4.29002 3.25179 6.44407 3.02017C7.76429 2.8812 9.06135 3.27495 10.011 4.10877C10.8448 4.84995 11.308 5.8459 11.308 6.91135V11.729C11.308 12.0764 11.4007 12.4007 11.6091 12.7249L11.7481 12.9334H2.25179Z" fill="#64748B"/>
</svg>
