<svg width="26" height="26" viewBox="0 0 26 26" fill="none" xmlns="http://www.w3.org/2000/svg">
<path d="M21.125 12.0938V12.5938H21.625H23.5V13.4688H21.625H21.125V13.9688V15.8125H20.225V13.9688V13.4688H19.725H17.85V12.5938H19.725H20.225V12.0938V10.25H21.125V12.0938ZM14.95 9.75C14.95 11.5389 13.479 13 11.65 13C9.82097 13 8.35 11.5389 8.35 9.75C8.35 7.96108 9.82097 6.5 11.65 6.5C13.479 6.5 14.95 7.96108 14.95 9.75ZM11.65 15.4062C12.4566 15.4062 13.2247 15.2368 13.9197 14.9375H14.31C16.2429 14.9375 17.8 16.4835 17.8 18.375V19.5938C17.8 20.0878 17.3918 20.5 16.875 20.5H6.425C5.90816 20.5 5.5 20.0878 5.5 19.5938V18.375C5.5 16.4835 7.05707 14.9375 8.99 14.9375H9.38064C10.0774 15.2366 10.8427 15.4062 11.65 15.4062Z" stroke="#66E0C9"/>
<circle cx="13" cy="13" r="12.5" stroke="#66E0C9"/>
</svg>
